<svg width="122" height="119" viewBox="0 0 122 119" fill="none" xmlns="http://www.w3.org/2000/svg">
<ellipse cx="58.9541" cy="58.2453" rx="58.0459" ry="57.5849" fill="white"/>
<ellipse cx="99.7615" cy="19.6226" rx="17.3119" ry="17.9623" fill="white"/>
<ellipse cx="62.5183" cy="63" rx="56.5183" ry="56" fill="#22AED1"/>
<line x1="86.6995" y1="12.283" x2="86.6995" y2="112.66" stroke="white" stroke-opacity="0.75" stroke-width="0.5"/>
<line x1="101.975" y1="22.8491" x2="101.975" y2="102.094" stroke="white" stroke-opacity="0.75" stroke-width="0.5"/>
<line x1="70.406" y1="8.05661" x2="70.406" y2="119" stroke="white" stroke-opacity="0.75" stroke-width="0.5"/>
<line x1="54.1124" y1="8.05661" x2="54.1124" y2="117.943" stroke="white" stroke-opacity="0.75" stroke-width="0.5"/>
<line x1="37.8188" y1="13.3396" x2="37.8188" y2="113.717" stroke="white" stroke-opacity="0.75" stroke-width="0.5"/>
<line x1="22.5436" y1="23.9057" x2="22.5436" y2="102.094" stroke="white" stroke-opacity="0.75" stroke-width="0.5"/>
<line x1="16.1835" y1="31.0519" x2="108.853" y2="31.0519" stroke="white" stroke-opacity="0.75" stroke-width="0.5"/>
<line x1="7.01835" y1="50.0707" x2="117" y2="50.0707" stroke="white" stroke-opacity="0.75" stroke-width="0.5"/>
<line x1="6" y1="66.9764" x2="118.018" y2="66.9764" stroke="white" stroke-opacity="0.75" stroke-width="0.5"/>
<line x1="6" y1="66.9764" x2="118.018" y2="66.9764" stroke="white" stroke-opacity="0.75" stroke-width="0.5"/>
<line x1="11.0917" y1="85.9953" x2="114.963" y2="85.9953" stroke="white" stroke-opacity="0.75" stroke-width="0.5"/>
<line x1="21.2752" y1="101.844" x2="102.743" y2="101.844" stroke="white" stroke-opacity="0.75" stroke-width="0.5"/>
<ellipse cx="104.78" cy="24.434" rx="16.2936" ry="16.3774" fill="#CC2936"/>
</svg>
