<svg width="80" height="89" viewBox="0 0 80 89" fill="none" xmlns="http://www.w3.org/2000/svg">
<g filter="url(#filter0_d)">
<path d="M44.2495 7H43.331C42.2264 7 41.331 7.89543 41.331 9V69C41.331 70.1046 42.2264 71 43.331 71H44.2495C45.3541 71 46.2495 70.1046 46.2495 69V9C46.2495 7.89543 45.3541 7 44.2495 7Z" fill="#F1F5F8"/>
<path d="M15.7973 21.7902L15.369 22.4551C14.771 23.3837 15.0545 24.5963 16.0023 25.1634L68.9838 56.8643C69.9317 57.4314 71.1849 57.1384 71.783 56.2097L72.2113 55.5448C72.8094 54.6162 72.5258 53.4037 71.578 52.8365L18.5965 21.1356C17.6486 20.5685 16.3954 20.8615 15.7973 21.7902Z" fill="#F1F5F8"/>
<path d="M72.2117 22.4557L71.7835 21.7908C71.1854 20.8621 69.9322 20.569 68.9843 21.1362L16.0021 52.8361C15.0543 53.4032 14.7707 54.6158 15.3688 55.5444L15.797 56.2093C16.3951 57.138 17.6483 57.431 18.5962 56.8639L71.5784 25.164C72.5262 24.5969 72.8098 23.3843 72.2117 22.4557Z" fill="#F1F5F8"/>
<path d="M54.2422 10.0167L53.6188 9.45826C52.796 8.72131 51.5075 8.76853 50.7409 9.56372L43.7517 16.813C42.9851 17.6082 43.0306 18.8503 43.8534 19.5872L44.4768 20.1456C45.2996 20.8826 46.5881 20.8354 47.3548 20.0402L54.3439 12.7908C55.1105 11.9957 55.065 10.7536 54.2422 10.0167Z" fill="#F1F5F8"/>
<path d="M33.6072 9.12441L32.9837 9.6828C32.1609 10.4197 32.1154 11.6618 32.882 12.457L39.8709 19.7065C40.6375 20.5018 41.926 20.549 42.7488 19.8121L43.3723 19.2537C44.1951 18.5168 44.2406 17.2748 43.474 16.4795L36.4851 9.22997C35.7185 8.43475 34.43 8.38749 33.6072 9.12441Z" fill="#F1F5F8"/>
<path d="M74.8863 32.0981L75.005 31.3588C75.1771 30.2869 74.4171 29.2765 73.3076 29.102L63.1273 27.5012C62.0178 27.3267 60.9788 28.0543 60.8067 29.1262L60.688 29.8655C60.5159 30.9374 61.2759 31.9478 62.3854 32.1223L72.5657 33.7231C73.6752 33.8975 74.7142 33.17 74.8863 32.0981Z" fill="#F1F5F8"/>
<path d="M64.1317 15.1126L63.2506 14.9099C62.156 14.658 61.063 15.3096 60.8093 16.3652L58.5 25.9733C58.2462 27.0289 58.9279 28.0887 60.0225 28.3406L60.9036 28.5433C61.9982 28.7951 63.0912 28.1435 63.3449 27.0879L65.6543 17.4799C65.908 16.4243 65.2263 15.3644 64.1317 15.1126Z" fill="#F1F5F8"/>
<path d="M63.655 63.2227L64.5351 63.0046C65.625 62.7346 66.2877 61.6635 66.0153 60.6123L63.536 51.0468C63.2635 49.9956 62.159 49.3624 61.0691 49.6324L60.189 49.8504C59.0991 50.1205 58.4363 51.1915 58.7088 52.2427L61.1881 61.8082C61.4606 62.8595 62.565 63.4927 63.655 63.2227Z" fill="#F1F5F8"/>
<path d="M75.6981 46.9419L75.5668 46.2074C75.3757 45.1385 74.324 44.4283 73.2178 44.6212L63.0643 46.3922C61.9581 46.5851 61.2163 47.6081 61.4074 48.6771L61.5387 49.4115C61.7299 50.4805 62.7816 51.1906 63.8878 50.9977L74.0413 49.2267C75.1475 49.0338 75.8893 48.0108 75.6981 46.9419Z" fill="#F1F5F8"/>
<path d="M14.5229 43.5863L14.3223 44.2966C14.0266 45.3435 14.664 46.4298 15.7461 46.7228L25.6943 49.4173C26.7763 49.7103 27.8931 49.0992 28.1888 48.0523L28.3894 47.342C28.6851 46.2951 28.0476 45.2089 26.9656 44.9158L17.0174 42.2214C15.9354 41.9283 14.8185 42.5394 14.5229 43.5863Z" fill="#F1F5F8"/>
<path d="M23.2425 61.6127L24.1055 61.913C25.1643 62.2814 26.3264 61.7522 26.7012 60.7309L30.1077 51.4478C30.4824 50.4265 29.9279 49.2999 28.8692 48.9315L28.0061 48.6312C26.9474 48.2628 25.7853 48.792 25.4105 49.8133L22.004 59.0963C21.6292 60.1176 22.1837 61.2442 23.2425 61.6127Z" fill="#F1F5F8"/>
<path d="M23.8778 15.6479L23.0109 15.9356C21.9466 16.2887 21.3746 17.4073 21.7334 18.4339L24.9949 27.7668C25.3537 28.7935 26.5073 29.3394 27.5716 28.9863L28.4386 28.6987C29.5029 28.3455 30.0748 27.227 29.7161 26.2003L26.4546 16.8674C26.0958 15.8408 24.9422 15.2948 23.8778 15.6479Z" fill="#F1F5F8"/>
<path d="M13.2132 32.8055L13.4028 33.5193C13.6821 34.5704 14.7893 35.1975 15.8757 34.92L25.8628 32.3695C26.9493 32.092 27.6037 31.0151 27.3244 29.964L27.1347 29.2502C26.8555 28.1991 25.7483 27.572 24.6618 27.8495L14.6748 30.4C13.5883 30.6775 12.9339 31.7544 13.2132 32.8055Z" fill="#F1F5F8"/>
<path d="M33.2497 67.9354L33.8905 68.4841C34.7302 69.2031 36.0172 69.1281 36.7652 68.3165L43.5797 60.9221C44.3277 60.1106 44.2533 58.8698 43.4136 58.1508L42.7728 57.6021C41.9331 56.8831 40.646 56.9581 39.8981 57.7697L33.0835 65.1641C32.3356 65.9756 32.41 67.2164 33.2497 67.9354Z" fill="#F1F5F8"/>
<path d="M53.9047 68.3857L54.5107 67.8181C55.3161 67.0635 55.3328 65.8208 54.5479 65.0424L47.3879 57.9414C46.603 57.163 45.3137 57.1436 44.5082 57.8981L43.9022 58.4657C43.0968 59.2202 43.0801 60.463 43.865 61.2414L51.025 68.3424C51.8099 69.1208 53.0992 69.1402 53.9047 68.3857Z" fill="#F1F5F8"/>
</g>
<g filter="url(#filter1_d)">
<path d="M34 10C34 4.47715 29.5228 0 24 0C18.4772 0 14 4.47715 14 10V43.6747C14 49.1975 18.4772 53.6747 24 53.6747C29.5228 53.6747 34 49.1975 34 43.6747V10Z" fill="white"/>
<path d="M24 81C35.0457 81 44 72.043 44 60.994C44 49.945 35.0457 40.988 24 40.988C12.9543 40.988 4 49.945 4 60.994C4 72.043 12.9543 81 24 81Z" fill="white"/>
<g filter="url(#filter2_d)">
<path d="M19 40C19 37.2386 21.2386 35 24 35C26.7614 35 29 37.2386 29 40V65C29 67.7614 26.7614 70 24 70C21.2386 70 19 67.7614 19 65V40Z" fill="#4ABEF0"/>
</g>
<g filter="url(#filter3_d)">
<path d="M24 76.1205C32.2843 76.1205 39 69.5666 39 61.4819C39 53.3972 32.2843 46.8433 24 46.8433C15.7157 46.8433 9 53.3972 9 61.4819C9 69.5666 15.7157 76.1205 24 76.1205Z" fill="#4ABEF0"/>
</g>
<g filter="url(#filter4_d)">
<path d="M26 9.78313C26 9.23084 26.4477 8.78313 27 8.78313H34V11.7108H27C26.4477 11.7108 26 11.2631 26 10.7108V9.78313Z" fill="#6E6B6B"/>
</g>
<g filter="url(#filter5_d)">
<path d="M26 19.5422C26 18.9899 26.4477 18.5422 27 18.5422H34V21.4699H27C26.4477 21.4699 26 21.0222 26 20.4699V19.5422Z" fill="#6E6B6B"/>
</g>
<g filter="url(#filter6_d)">
<path d="M26 29.3012C26 28.7489 26.4477 28.3012 27 28.3012H34V31.2289H27C26.4477 31.2289 26 30.7812 26 30.2289V29.3012Z" fill="#6E6B6B"/>
</g>
</g>
<defs>
<filter id="filter0_d" x="9.14874" y="7" width="70.5794" height="72" filterUnits="userSpaceOnUse" color-interpolation-filters="sRGB">
<feFlood flood-opacity="0" result="BackgroundImageFix"/>
<feColorMatrix in="SourceAlpha" type="matrix" values="0 0 0 0 0 0 0 0 0 0 0 0 0 0 0 0 0 0 127 0"/>
<feOffset dy="4"/>
<feGaussianBlur stdDeviation="2"/>
<feColorMatrix type="matrix" values="0 0 0 0 0 0 0 0 0 0 0 0 0 0 0 0 0 0 0.25 0"/>
<feBlend mode="normal" in2="BackgroundImageFix" result="effect1_dropShadow"/>
<feBlend mode="normal" in="SourceGraphic" in2="effect1_dropShadow" result="shape"/>
</filter>
<filter id="filter1_d" x="0" y="0" width="48" height="89" filterUnits="userSpaceOnUse" color-interpolation-filters="sRGB">
<feFlood flood-opacity="0" result="BackgroundImageFix"/>
<feColorMatrix in="SourceAlpha" type="matrix" values="0 0 0 0 0 0 0 0 0 0 0 0 0 0 0 0 0 0 127 0"/>
<feOffset dy="4"/>
<feGaussianBlur stdDeviation="2"/>
<feColorMatrix type="matrix" values="0 0 0 0 0 0 0 0 0 0 0 0 0 0 0 0 0 0 0.25 0"/>
<feBlend mode="normal" in2="BackgroundImageFix" result="effect1_dropShadow"/>
<feBlend mode="normal" in="SourceGraphic" in2="effect1_dropShadow" result="shape"/>
</filter>
<filter id="filter2_d" x="19" y="35" width="14" height="39" filterUnits="userSpaceOnUse" color-interpolation-filters="sRGB">
<feFlood flood-opacity="0" result="BackgroundImageFix"/>
<feColorMatrix in="SourceAlpha" type="matrix" values="0 0 0 0 0 0 0 0 0 0 0 0 0 0 0 0 0 0 127 0"/>
<feOffset dx="2" dy="2"/>
<feGaussianBlur stdDeviation="1"/>
<feColorMatrix type="matrix" values="0 0 0 0 0 0 0 0 0 0 0 0 0 0 0 0 0 0 0.25 0"/>
<feBlend mode="normal" in2="BackgroundImageFix" result="effect1_dropShadow"/>
<feBlend mode="normal" in="SourceGraphic" in2="effect1_dropShadow" result="shape"/>
</filter>
<filter id="filter3_d" x="9" y="46.8433" width="34" height="33.2772" filterUnits="userSpaceOnUse" color-interpolation-filters="sRGB">
<feFlood flood-opacity="0" result="BackgroundImageFix"/>
<feColorMatrix in="SourceAlpha" type="matrix" values="0 0 0 0 0 0 0 0 0 0 0 0 0 0 0 0 0 0 127 0"/>
<feOffset dx="2" dy="2"/>
<feGaussianBlur stdDeviation="1"/>
<feColorMatrix type="matrix" values="0 0 0 0 0 0 0 0 0 0 0 0 0 0 0 0 0 0 0.25 0"/>
<feBlend mode="normal" in2="BackgroundImageFix" result="effect1_dropShadow"/>
<feBlend mode="normal" in="SourceGraphic" in2="effect1_dropShadow" result="shape"/>
</filter>
<filter id="filter4_d" x="24" y="8.78313" width="12" height="6.92767" filterUnits="userSpaceOnUse" color-interpolation-filters="sRGB">
<feFlood flood-opacity="0" result="BackgroundImageFix"/>
<feColorMatrix in="SourceAlpha" type="matrix" values="0 0 0 0 0 0 0 0 0 0 0 0 0 0 0 0 0 0 127 0"/>
<feOffset dy="2"/>
<feGaussianBlur stdDeviation="1"/>
<feColorMatrix type="matrix" values="0 0 0 0 0 0 0 0 0 0 0 0 0 0 0 0 0 0 0.25 0"/>
<feBlend mode="normal" in2="BackgroundImageFix" result="effect1_dropShadow"/>
<feBlend mode="normal" in="SourceGraphic" in2="effect1_dropShadow" result="shape"/>
</filter>
<filter id="filter5_d" x="24" y="18.5422" width="12" height="6.9277" filterUnits="userSpaceOnUse" color-interpolation-filters="sRGB">
<feFlood flood-opacity="0" result="BackgroundImageFix"/>
<feColorMatrix in="SourceAlpha" type="matrix" values="0 0 0 0 0 0 0 0 0 0 0 0 0 0 0 0 0 0 127 0"/>
<feOffset dy="2"/>
<feGaussianBlur stdDeviation="1"/>
<feColorMatrix type="matrix" values="0 0 0 0 0 0 0 0 0 0 0 0 0 0 0 0 0 0 0.25 0"/>
<feBlend mode="normal" in2="BackgroundImageFix" result="effect1_dropShadow"/>
<feBlend mode="normal" in="SourceGraphic" in2="effect1_dropShadow" result="shape"/>
</filter>
<filter id="filter6_d" x="24" y="28.3012" width="12" height="6.9277" filterUnits="userSpaceOnUse" color-interpolation-filters="sRGB">
<feFlood flood-opacity="0" result="BackgroundImageFix"/>
<feColorMatrix in="SourceAlpha" type="matrix" values="0 0 0 0 0 0 0 0 0 0 0 0 0 0 0 0 0 0 127 0"/>
<feOffset dy="2"/>
<feGaussianBlur stdDeviation="1"/>
<feColorMatrix type="matrix" values="0 0 0 0 0 0 0 0 0 0 0 0 0 0 0 0 0 0 0.25 0"/>
<feBlend mode="normal" in2="BackgroundImageFix" result="effect1_dropShadow"/>
<feBlend mode="normal" in="SourceGraphic" in2="effect1_dropShadow" result="shape"/>
</filter>
</defs>
</svg>
